<mxfile host="Electron" modified="2023-11-25T07:55:13.548Z" agent="Mozilla/5.0 (Windows NT 10.0; Win64; x64) AppleWebKit/537.36 (KHTML, like Gecko) draw.io/22.1.2 Chrome/114.0.5735.289 Electron/25.9.4 Safari/537.36" etag="xZAmP47s_fzaaggsRj0v" version="22.1.2" type="device">
  <diagram name="Page-1" id="dNXR-hKTdnCZOeplXMrT">
    <mxGraphModel dx="1388" dy="685" grid="1" gridSize="10" guides="1" tooltips="1" connect="1" arrows="1" fold="1" page="1" pageScale="1" pageWidth="1800" pageHeight="1200" math="0" shadow="0">
      <root>
        <mxCell id="0" />
        <mxCell id="1" parent="0" />
        <mxCell id="xIBE9MmWSDMr6PMOZGod-64" value="" style="rounded=0;whiteSpace=wrap;html=1;fillColor=none;dashed=1;" parent="1" vertex="1">
          <mxGeometry x="300" y="80" width="840" height="570" as="geometry" />
        </mxCell>
        <mxCell id="xIBE9MmWSDMr6PMOZGod-29" style="edgeStyle=orthogonalEdgeStyle;rounded=0;orthogonalLoop=1;jettySize=auto;html=1;entryX=0;entryY=0.5;entryDx=0;entryDy=0;" parent="1" source="xIBE9MmWSDMr6PMOZGod-9" target="xIBE9MmWSDMr6PMOZGod-11" edge="1">
          <mxGeometry relative="1" as="geometry" />
        </mxCell>
        <mxCell id="xIBE9MmWSDMr6PMOZGod-9" value="" style="rounded=0;whiteSpace=wrap;html=1;fillColor=none;dashed=1;fontColor=#ffffff;strokeColor=#000000;" parent="1" vertex="1">
          <mxGeometry x="130" y="230" width="150" height="240" as="geometry" />
        </mxCell>
        <mxCell id="xIBE9MmWSDMr6PMOZGod-1" value="Semi-structured&lt;br&gt;(Social media)" style="rounded=0;whiteSpace=wrap;html=1;" parent="1" vertex="1">
          <mxGeometry x="145" y="320" width="120" height="60" as="geometry" />
        </mxCell>
        <mxCell id="xIBE9MmWSDMr6PMOZGod-2" value="Structured&lt;br&gt;(Data from Applications, SAAS)" style="rounded=0;whiteSpace=wrap;html=1;" parent="1" vertex="1">
          <mxGeometry x="145" y="250" width="120" height="60" as="geometry" />
        </mxCell>
        <mxCell id="xIBE9MmWSDMr6PMOZGod-3" value="Unstructured&lt;br&gt;(chat, call logs, images, email etc.)" style="rounded=0;whiteSpace=wrap;html=1;" parent="1" vertex="1">
          <mxGeometry x="145" y="390" width="120" height="60" as="geometry" />
        </mxCell>
        <mxCell id="xIBE9MmWSDMr6PMOZGod-10" value="Data Sources" style="text;html=1;strokeColor=none;fillColor=none;align=center;verticalAlign=middle;whiteSpace=wrap;rounded=0;" parent="1" vertex="1">
          <mxGeometry x="150" y="200" width="110" height="30" as="geometry" />
        </mxCell>
        <mxCell id="xIBE9MmWSDMr6PMOZGod-30" style="edgeStyle=orthogonalEdgeStyle;rounded=0;orthogonalLoop=1;jettySize=auto;html=1;entryX=0;entryY=0.5;entryDx=0;entryDy=0;" parent="1" source="xIBE9MmWSDMr6PMOZGod-11" target="xIBE9MmWSDMr6PMOZGod-22" edge="1">
          <mxGeometry relative="1" as="geometry" />
        </mxCell>
        <mxCell id="xIBE9MmWSDMr6PMOZGod-11" value="" style="rounded=0;whiteSpace=wrap;html=1;fillColor=none;fontColor=#ffffff;strokeColor=#000000;" parent="1" vertex="1">
          <mxGeometry x="345" y="300" width="150" height="100" as="geometry" />
        </mxCell>
        <mxCell id="xIBE9MmWSDMr6PMOZGod-12" value="Data Ingestion" style="text;html=1;strokeColor=none;fillColor=none;align=center;verticalAlign=middle;whiteSpace=wrap;rounded=0;" parent="1" vertex="1">
          <mxGeometry x="365" y="335" width="110" height="30" as="geometry" />
        </mxCell>
        <mxCell id="xIBE9MmWSDMr6PMOZGod-37" style="edgeStyle=orthogonalEdgeStyle;rounded=0;orthogonalLoop=1;jettySize=auto;html=1;entryX=0.5;entryY=0;entryDx=0;entryDy=0;" parent="1" source="xIBE9MmWSDMr6PMOZGod-13" target="xIBE9MmWSDMr6PMOZGod-24" edge="1">
          <mxGeometry relative="1" as="geometry">
            <Array as="points" />
          </mxGeometry>
        </mxCell>
        <mxCell id="xIBE9MmWSDMr6PMOZGod-69" style="edgeStyle=orthogonalEdgeStyle;rounded=0;orthogonalLoop=1;jettySize=auto;html=1;entryX=0;entryY=0.5;entryDx=0;entryDy=0;" parent="1" source="xIBE9MmWSDMr6PMOZGod-13" target="xIBE9MmWSDMr6PMOZGod-66" edge="1">
          <mxGeometry relative="1" as="geometry">
            <Array as="points">
              <mxPoint x="980" y="298" />
              <mxPoint x="980" y="298" />
            </Array>
          </mxGeometry>
        </mxCell>
        <mxCell id="xIBE9MmWSDMr6PMOZGod-13" value="" style="rounded=0;whiteSpace=wrap;html=1;fillColor=none;fontColor=#ffffff;strokeColor=#000000;" parent="1" vertex="1">
          <mxGeometry x="745" y="230" width="150" height="100" as="geometry" />
        </mxCell>
        <mxCell id="xIBE9MmWSDMr6PMOZGod-15" value="Speed Layer" style="text;html=1;strokeColor=none;fillColor=none;align=center;verticalAlign=middle;whiteSpace=wrap;rounded=0;" parent="1" vertex="1">
          <mxGeometry x="580" y="270" width="110" height="30" as="geometry" />
        </mxCell>
        <mxCell id="xIBE9MmWSDMr6PMOZGod-34" style="edgeStyle=orthogonalEdgeStyle;rounded=0;orthogonalLoop=1;jettySize=auto;html=1;entryX=0;entryY=0.75;entryDx=0;entryDy=0;" parent="1" source="xIBE9MmWSDMr6PMOZGod-18" target="xIBE9MmWSDMr6PMOZGod-13" edge="1">
          <mxGeometry relative="1" as="geometry" />
        </mxCell>
        <mxCell id="xIBE9MmWSDMr6PMOZGod-18" value="" style="rounded=0;whiteSpace=wrap;html=1;fillColor=none;fontColor=#ffffff;strokeColor=#000000;" parent="1" vertex="1">
          <mxGeometry x="555" y="380" width="150" height="80" as="geometry" />
        </mxCell>
        <mxCell id="xIBE9MmWSDMr6PMOZGod-19" value="Batch Layer" style="text;html=1;strokeColor=none;fillColor=none;align=center;verticalAlign=middle;whiteSpace=wrap;rounded=0;" parent="1" vertex="1">
          <mxGeometry x="585" y="410" width="110" height="20" as="geometry" />
        </mxCell>
        <mxCell id="xIBE9MmWSDMr6PMOZGod-32" style="edgeStyle=orthogonalEdgeStyle;rounded=0;orthogonalLoop=1;jettySize=auto;html=1;" parent="1" source="xIBE9MmWSDMr6PMOZGod-22" target="xIBE9MmWSDMr6PMOZGod-13" edge="1">
          <mxGeometry relative="1" as="geometry" />
        </mxCell>
        <mxCell id="xIBE9MmWSDMr6PMOZGod-22" value="" style="rounded=0;whiteSpace=wrap;html=1;fillColor=none;fontColor=#ffffff;strokeColor=#000000;" parent="1" vertex="1">
          <mxGeometry x="555" y="230" width="160" height="100" as="geometry" />
        </mxCell>
        <mxCell id="xIBE9MmWSDMr6PMOZGod-52" style="rounded=0;orthogonalLoop=1;jettySize=auto;html=1;entryX=0;entryY=0.5;entryDx=0;entryDy=0;exitX=1;exitY=0.75;exitDx=0;exitDy=0;" parent="1" source="xIBE9MmWSDMr6PMOZGod-18" target="xIBE9MmWSDMr6PMOZGod-45" edge="1">
          <mxGeometry relative="1" as="geometry">
            <mxPoint x="905" y="280" as="sourcePoint" />
          </mxGeometry>
        </mxCell>
        <mxCell id="xIBE9MmWSDMr6PMOZGod-56" style="edgeStyle=orthogonalEdgeStyle;rounded=0;orthogonalLoop=1;jettySize=auto;html=1;" parent="1" target="xIBE9MmWSDMr6PMOZGod-53" edge="1">
          <mxGeometry relative="1" as="geometry">
            <mxPoint x="903" y="270" as="sourcePoint" />
          </mxGeometry>
        </mxCell>
        <mxCell id="xIBE9MmWSDMr6PMOZGod-23" value="Serving Layer" style="text;html=1;strokeColor=none;fillColor=none;align=center;verticalAlign=middle;whiteSpace=wrap;rounded=0;" parent="1" vertex="1">
          <mxGeometry x="765" y="270" width="120" height="20" as="geometry" />
        </mxCell>
        <mxCell id="xIBE9MmWSDMr6PMOZGod-24" value="" style="rounded=0;whiteSpace=wrap;html=1;fillColor=none;fontColor=#ffffff;strokeColor=#000000;" parent="1" vertex="1">
          <mxGeometry x="745" y="365" width="150" height="60" as="geometry" />
        </mxCell>
        <mxCell id="xIBE9MmWSDMr6PMOZGod-25" value="Identity Resolution" style="text;html=1;strokeColor=none;fillColor=none;align=center;verticalAlign=middle;whiteSpace=wrap;rounded=0;" parent="1" vertex="1">
          <mxGeometry x="765" y="390" width="110" height="20" as="geometry" />
        </mxCell>
        <mxCell id="xIBE9MmWSDMr6PMOZGod-31" style="edgeStyle=orthogonalEdgeStyle;rounded=0;orthogonalLoop=1;jettySize=auto;html=1;" parent="1" source="xIBE9MmWSDMr6PMOZGod-22" edge="1">
          <mxGeometry relative="1" as="geometry">
            <mxPoint x="635" y="380" as="targetPoint" />
          </mxGeometry>
        </mxCell>
        <mxCell id="xIBE9MmWSDMr6PMOZGod-42" value="" style="rounded=0;whiteSpace=wrap;html=1;fillColor=none;fontColor=#ffffff;strokeColor=#000000;" parent="1" vertex="1">
          <mxGeometry x="745" y="120" width="150" height="70" as="geometry" />
        </mxCell>
        <mxCell id="xIBE9MmWSDMr6PMOZGod-43" value="Segmentation and personalization" style="text;html=1;strokeColor=none;fillColor=none;align=center;verticalAlign=middle;whiteSpace=wrap;rounded=0;" parent="1" vertex="1">
          <mxGeometry x="765" y="140" width="110" height="20" as="geometry" />
        </mxCell>
        <mxCell id="xIBE9MmWSDMr6PMOZGod-44" value="" style="endArrow=classic;startArrow=classic;html=1;rounded=0;exitX=0.5;exitY=0;exitDx=0;exitDy=0;entryX=0.5;entryY=1;entryDx=0;entryDy=0;" parent="1" source="xIBE9MmWSDMr6PMOZGod-13" target="xIBE9MmWSDMr6PMOZGod-42" edge="1">
          <mxGeometry width="50" height="50" relative="1" as="geometry">
            <mxPoint x="935" y="260" as="sourcePoint" />
            <mxPoint x="985" y="210" as="targetPoint" />
          </mxGeometry>
        </mxCell>
        <mxCell id="xIBE9MmWSDMr6PMOZGod-45" value="&lt;font color=&quot;#000000&quot;&gt;Data Analytics&lt;/font&gt;" style="rounded=0;whiteSpace=wrap;html=1;fillColor=none;fontColor=#ffffff;strokeColor=#000000;" parent="1" vertex="1">
          <mxGeometry x="955" y="420" width="130" height="40" as="geometry" />
        </mxCell>
        <mxCell id="xIBE9MmWSDMr6PMOZGod-53" value="&lt;font color=&quot;#000000&quot;&gt;Data Collaboration&lt;/font&gt;" style="rounded=0;whiteSpace=wrap;html=1;fillColor=none;fontColor=#ffffff;strokeColor=#000000;" parent="1" vertex="1">
          <mxGeometry x="955" y="250" width="130" height="40" as="geometry" />
        </mxCell>
        <mxCell id="xIBE9MmWSDMr6PMOZGod-57" value="&lt;font color=&quot;#000000&quot;&gt;Customer Privacy and concent Mgmt&lt;/font&gt;" style="rounded=0;whiteSpace=wrap;html=1;fillColor=none;fontColor=#ffffff;strokeColor=#000000;" parent="1" vertex="1">
          <mxGeometry x="955" y="335" width="130" height="40" as="geometry" />
        </mxCell>
        <mxCell id="xIBE9MmWSDMr6PMOZGod-60" style="edgeStyle=orthogonalEdgeStyle;rounded=0;orthogonalLoop=1;jettySize=auto;html=1;entryX=0;entryY=0.5;entryDx=0;entryDy=0;" parent="1" source="xIBE9MmWSDMr6PMOZGod-58" target="xIBE9MmWSDMr6PMOZGod-59" edge="1">
          <mxGeometry relative="1" as="geometry">
            <mxPoint x="1175" y="515" as="targetPoint" />
          </mxGeometry>
        </mxCell>
        <mxCell id="xIBE9MmWSDMr6PMOZGod-58" value="&lt;font color=&quot;#000000&quot;&gt;Machine Learning&lt;br&gt;Next Best Action&lt;br&gt;&lt;/font&gt;" style="rounded=0;whiteSpace=wrap;html=1;fillColor=none;fontColor=#ffffff;strokeColor=#000000;" parent="1" vertex="1">
          <mxGeometry x="955" y="490" width="130" height="50" as="geometry" />
        </mxCell>
        <mxCell id="xIBE9MmWSDMr6PMOZGod-59" value="Compensation Management" style="rounded=0;whiteSpace=wrap;html=1;" parent="1" vertex="1">
          <mxGeometry x="1250" y="490" width="120" height="50" as="geometry" />
        </mxCell>
        <mxCell id="xIBE9MmWSDMr6PMOZGod-62" value="&lt;font color=&quot;#000000&quot;&gt;Data Governance&lt;/font&gt;" style="rounded=0;whiteSpace=wrap;html=1;fillColor=none;fontColor=#ffffff;strokeColor=#000000;" parent="1" vertex="1">
          <mxGeometry x="745" y="490" width="160" height="40" as="geometry" />
        </mxCell>
        <mxCell id="xIBE9MmWSDMr6PMOZGod-66" value="Customer Order Management" style="rounded=0;whiteSpace=wrap;html=1;" parent="1" vertex="1">
          <mxGeometry x="1240" y="260" width="120" height="75" as="geometry" />
        </mxCell>
        <mxCell id="xIBE9MmWSDMr6PMOZGod-71" style="edgeStyle=orthogonalEdgeStyle;rounded=0;orthogonalLoop=1;jettySize=auto;html=1;entryX=1;entryY=0.5;entryDx=0;entryDy=0;" parent="1" source="xIBE9MmWSDMr6PMOZGod-70" target="xIBE9MmWSDMr6PMOZGod-66" edge="1">
          <mxGeometry relative="1" as="geometry" />
        </mxCell>
        <mxCell id="xIBE9MmWSDMr6PMOZGod-70" value="customer support" style="rounded=0;whiteSpace=wrap;html=1;" parent="1" vertex="1">
          <mxGeometry x="1480" y="267.5" width="120" height="60" as="geometry" />
        </mxCell>
      </root>
    </mxGraphModel>
  </diagram>
</mxfile>
